<svg xmlns="http://www.w3.org/2000/svg" xmlns:xlink="http://www.w3.org/1999/xlink" viewBox="0,0,256,256" width="50px" height="50px" fill-rule="nonzero"><g fill="#fbfafa" fill-rule="nonzero" stroke="none" stroke-width="1" stroke-linecap="butt" stroke-linejoin="miter" stroke-miterlimit="10" stroke-dasharray="" stroke-dashoffset="0" font-family="none" font-weight="none" font-size="none" text-anchor="none" style="mix-blend-mode: normal"><g transform="scale(5.12,5.12)"><path d="M25,4c-12.68359,0 -23,8.97266 -23,20c0,6.1875 3.33594,12.06641 8.94922,15.83984c-0.13281,1.05078 -0.66406,3.60156 -2.76562,6.58594l-1.10547,1.56641l1.97656,0.00781c5.42969,0 9.10156,-3.32812 10.30859,-4.60547c1.83203,0.40234 3.72656,0.60547 5.63672,0.60547c12.68359,0 23,-8.97266 23,-20c0,-11.02734 -10.31641,-20 -23,-20z"></path></g></g><g fill="#000000" fill-rule="nonzero" stroke="none" stroke-width="1" stroke-linecap="butt" stroke-linejoin="miter" stroke-miterlimit="10" stroke-dasharray="" stroke-dashoffset="0" font-family="none" font-weight="none" font-size="none" text-anchor="none" style="mix-blend-mode: normal"><g><path d="M42.4519,135.12923v0c0.28,-1.58667 -0.5,-2.8 -2.34,-3.64v0l-3.86,-1.54c-4.48,-2 -6.60667,-4.75333 -6.38,-8.26v0c0.09333,-1.62667 0.62667,-3.06667 1.6,-4.32c0.97333,-1.25333 2.34,-2.23667 4.1,-2.95c1.76,-0.71333 3.66,-1.05667 5.7,-1.03v0c2.81333,0.05333 5.08667,0.89 6.82,2.51c1.73333,1.62 2.58667,3.79 2.56,6.51v0h-5.84c0.06667,-1.32 -0.22333,-2.34667 -0.87,-3.08c-0.64667,-0.73333 -1.65,-1.11333 -3.01,-1.14v0c-1.33333,-0.02667 -2.49333,0.27667 -3.48,0.91c-0.98667,0.63333 -1.57333,1.50333 -1.76,2.61v0c-0.25333,1.45333 0.72,2.60667 2.92,3.46v0l2.64,1l1.52,0.7c3.93333,1.94667 5.77333,4.68 5.52,8.2v0c-0.12,1.72 -0.67,3.20333 -1.65,4.45c-0.98,1.24667 -2.31333,2.20333 -4,2.87c-1.68667,0.66667 -3.54333,0.98 -5.57,0.94v0c-2.06667,-0.04 -3.90667,-0.47333 -5.52,-1.3c-1.61333,-0.82667 -2.84,-1.99333 -3.68,-3.5v0c-0.78667,-1.4 -1.15333,-3 -1.1,-4.8v0l5.86,0.02c-0.18667,3.16 1.36667,4.76667 4.66,4.82v0c1.42667,0 2.6,-0.31333 3.52,-0.94c0.92,-0.62667 1.46667,-1.46 1.64,-2.5zM63.0719,120.86923v0c1.90667,0.02667 3.55,0.51667 4.93,1.47c1.38,0.95333 2.39333,2.26667 3.04,3.94c0.64667,1.67333 0.87667,3.53 0.69,5.57v0c-0.30667,3.44 -1.50333,6.22333 -3.59,8.35c-2.08667,2.12667 -4.66333,3.16333 -7.73,3.11v0c-1.88,-0.02667 -3.50667,-0.51 -4.88,-1.45c-1.37333,-0.94 -2.38667,-2.24333 -3.04,-3.91c-0.65333,-1.66667 -0.88667,-3.50667 -0.7,-5.52v0c0.34667,-3.57333 1.56,-6.41333 3.64,-8.52c2.08,-2.10667 4.62667,-3.12 7.64,-3.04zM57.3719,134.48923v0c0.02667,1.28 0.32667,2.29 0.9,3.03c0.57333,0.74 1.38,1.12333 2.42,1.15v0c1.73333,0.05333 3.09333,-0.74333 4.08,-2.39c0.98667,-1.64667 1.44667,-3.81 1.38,-6.49v0c-0.05333,-1.28 -0.36333,-2.30333 -0.93,-3.07c-0.56667,-0.76667 -1.37667,-1.16333 -2.43,-1.19v0c-1.68,-0.05333 -3.02333,0.73667 -4.03,2.37c-1.00667,1.63333 -1.47,3.83 -1.39,6.59zM82.8319,138.66923v0c1.04,0.02667 1.90667,-0.25667 2.6,-0.85c0.69333,-0.59333 1.14667,-1.38333 1.36,-2.37v0l5.3,-0.02c-0.09333,1.52 -0.57,2.88667 -1.43,4.1c-0.86,1.21333 -2.00667,2.16 -3.44,2.84c-1.43333,0.68 -2.94333,1 -4.53,0.96v0c-2.62667,-0.04 -4.70667,-0.94667 -6.24,-2.72c-1.53333,-1.77333 -2.27333,-4.13333 -2.22,-7.08v0l0.06,-1.1l0.02,-0.22c0.36,-3.52 1.54667,-6.31 3.56,-8.37c2.01333,-2.06 4.5,-3.05 7.46,-2.97v0c2.44,0.05333 4.37667,0.85 5.81,2.39c1.43333,1.54 2.13667,3.57 2.11,6.09v0h-5.26c0,-1.16 -0.25333,-2.07333 -0.76,-2.74c-0.50667,-0.66667 -1.26667,-1.02667 -2.28,-1.08v0c-2.69333,-0.08 -4.32667,1.88667 -4.9,5.9v0c-0.2,1.45333 -0.27333,2.68 -0.22,3.68v0c0.13333,2.33333 1.13333,3.52 3,3.56zM103.9919,121.26923l-3.76,21.64h-5.68l3.76,-21.64zM98.9719,115.76923v0c-0.02667,-0.89333 0.26667,-1.63333 0.88,-2.22c0.61333,-0.58667 1.35333,-0.88 2.22,-0.88v0c0.85333,-0.02667 1.59333,0.23333 2.22,0.78c0.62667,0.54667 0.95333,1.25333 0.98,2.12v0c0.02667,0.82667 -0.25,1.54667 -0.83,2.16c-0.58,0.61333 -1.33667,0.93333 -2.27,0.96v0c-0.84,0.02667 -1.57667,-0.22667 -2.21,-0.76c-0.63333,-0.53333 -0.96333,-1.25333 -0.99,-2.16zM123.0719,142.90923h-5.54c-0.17333,-0.54667 -0.24667,-1.2 -0.22,-1.96v0c-1.62667,1.62667 -3.46667,2.41333 -5.52,2.36v0c-1.89333,-0.02667 -3.46333,-0.64333 -4.71,-1.85c-1.24667,-1.20667 -1.83,-2.69667 -1.75,-4.47v0c0.09333,-2.36 1.08333,-4.17 2.97,-5.43c1.88667,-1.26 4.41667,-1.89 7.59,-1.89v0l2.64,0.04l0.28,-1.3c0.08,-0.44 0.1,-0.86 0.06,-1.26v0c-0.06667,-0.62667 -0.30333,-1.11667 -0.71,-1.47c-0.40667,-0.35333 -0.94333,-0.53667 -1.61,-0.55v0c-0.88,-0.02667 -1.62667,0.19 -2.24,0.65c-0.61333,0.46 -1.00667,1.12333 -1.18,1.99v0l-5.66,0.02c0.09333,-2.06667 1.04333,-3.74333 2.85,-5.03c1.80667,-1.28667 4.03667,-1.91667 6.69,-1.89v0c2.45333,0.05333 4.37333,0.78333 5.76,2.19c1.38667,1.40667 1.96667,3.21667 1.74,5.43v0l-1.66,10.36l-0.1,1.28c-0.02667,0.94667 0.08667,1.74667 0.34,2.4v0zM113.1919,138.92923v0c1.62667,0.05333 3.04667,-0.65333 4.26,-2.12v0l0.7,-3.74l-1.96,-0.02c-2.08,0.05333 -3.58,0.68667 -4.5,1.9v0c-0.33333,0.44 -0.54,0.98 -0.62,1.62v0c-0.10667,0.72 0.04333,1.29 0.45,1.71c0.40667,0.42 0.96333,0.63667 1.67,0.65zM135.6519,113.78923l2.92,21.84l9.8,-21.84h6.72l-14.38,29.12h-6.12l-5.24,-29.12zM162.0919,143.30923v0c-1.89333,-0.01333 -3.57,-0.47667 -5.03,-1.39c-1.46,-0.91333 -2.55,-2.16667 -3.27,-3.76c-0.72,-1.59333 -1,-3.35 -0.84,-5.27v0l0.06,-0.8c0.2,-2.10667 0.81333,-4.04 1.84,-5.8c1.02667,-1.76 2.34667,-3.11667 3.96,-4.07c1.61333,-0.95333 3.4,-1.40333 5.36,-1.35v0c2.78667,0.05333 4.89667,1.07667 6.33,3.07c1.43333,1.99333 1.97667,4.51667 1.63,7.57v0l-0.32,2.46h-13.26c-0.05333,1.4 0.28667,2.52 1.02,3.36c0.73333,0.84 1.73333,1.27333 3,1.3v0c2.05333,0.05333 3.85333,-0.74 5.4,-2.38v0l2.58,3.2c-0.81333,1.22667 -1.98667,2.18333 -3.52,2.87c-1.53333,0.68667 -3.18,1.01667 -4.94,0.99zM163.8919,125.52923v0c-1.04,-0.02667 -1.96333,0.3 -2.77,0.98c-0.80667,0.68 -1.53,1.86 -2.17,3.54v0h7.76l0.12,-0.52c0.08,-0.53333 0.08667,-1.04 0.02,-1.52v0c-0.13333,-0.77333 -0.46,-1.37667 -0.98,-1.81c-0.52,-0.43333 -1.18,-0.65667 -1.98,-0.67zM189.0319,121.10923l-0.72,5.58c-0.77333,-0.13333 -1.40667,-0.2 -1.9,-0.2v0c-2.01333,-0.05333 -3.60667,0.7 -4.78,2.26v0l-2.5,14.16h-5.64l3.76,-21.64l5.3,-0.02l-0.52,2.64c1.36,-2.04 3.04,-3.06 5.04,-3.06v0c0.56,0 1.21333,0.09333 1.96,0.28zM200.7319,136.80923v0c0.21333,-1.06667 -0.52667,-1.84 -2.22,-2.32v0l-1.82,-0.46c-4.30667,-1.18667 -6.4,-3.28 -6.28,-6.28v0c0.06667,-2.04 0.97,-3.70333 2.71,-4.99c1.74,-1.28667 3.83667,-1.91667 6.29,-1.89v0c2.44,0.02667 4.41333,0.67333 5.92,1.94c1.50667,1.26667 2.27333,2.95333 2.3,5.06v0l-5.6,-0.02c0.02667,-1.85333 -0.89333,-2.79333 -2.76,-2.82v0c-0.88,0 -1.64333,0.22 -2.29,0.66c-0.64667,0.44 -1.04333,1.03333 -1.19,1.78v0c-0.2,1.06667 0.60667,1.82 2.42,2.26v0l0.8,0.18c1.84,0.44 3.24667,0.94333 4.22,1.51c0.97333,0.56667 1.72333,1.27 2.25,2.11c0.52667,0.84 0.77,1.84667 0.73,3.02v0c-0.04,1.37333 -0.48333,2.57333 -1.33,3.6c-0.84667,1.02667 -2.00667,1.82 -3.48,2.38c-1.47333,0.56 -3.02333,0.82 -4.65,0.78v0c-2.4,-0.02667 -4.4,-0.71667 -6,-2.07c-1.6,-1.35333 -2.41333,-3.10333 -2.44,-5.25v0l5.32,0.04c0.05333,2.06667 1.16,3.11333 3.32,3.14v0c1.04,0 1.89667,-0.21333 2.57,-0.64c0.67333,-0.42667 1.07667,-1 1.21,-1.72zM219.0919,143.30923v0c-1.89333,-0.01333 -3.57,-0.47667 -5.03,-1.39c-1.46,-0.91333 -2.55,-2.16667 -3.27,-3.76c-0.72,-1.59333 -1,-3.35 -0.84,-5.27v0l0.06,-0.8c0.2,-2.10667 0.81333,-4.04 1.84,-5.8c1.02667,-1.76 2.34667,-3.11667 3.96,-4.07c1.61333,-0.95333 3.4,-1.40333 5.36,-1.35v0c2.78667,0.05333 4.89667,1.07667 6.33,3.07c1.43333,1.99333 1.97667,4.51667 1.63,7.57v0l-0.32,2.46h-13.26c-0.05333,1.4 0.28667,2.52 1.02,3.36c0.73333,0.84 1.73333,1.27333 3,1.3v0c2.05333,0.05333 3.85333,-0.74 5.4,-2.38v0l2.58,3.2c-0.81333,1.22667 -1.98667,2.18333 -3.52,2.87c-1.53333,0.68667 -3.18,1.01667 -4.94,0.99zM220.8919,125.52923v0c-1.04,-0.02667 -1.96333,0.3 -2.77,0.98c-0.80667,0.68 -1.53,1.86 -2.17,3.54v0h7.76l0.12,-0.52c0.08,-0.53333 0.08667,-1.04 0.02,-1.52v0c-0.13333,-0.77333 -0.46,-1.37667 -0.98,-1.81c-0.52,-0.43333 -1.18,-0.65667 -1.98,-0.67z"></path></g></g></svg>